<?xml version="1.0" encoding="UTF-8"?>
<!DOCTYPE svg PUBLIC "-//W3C//DTD SVG 1.1//EN" "http://www.w3.org/Graphics/SVG/1.1/DTD/svg11.dtd">
<svg version="1.1" xmlns="http://www.w3.org/2000/svg" xmlns:xlink="http://www.w3.org/1999/xlink" x="0" y="0" width="205.738" height="52.773" viewBox="0, 0, 205.738, 52.773">
  <g id="Layer_1" transform="translate(-204.714, -369.614)">
    <g>
      <path d="M211.36,371.114 L404.804,371.114 C407.647,371.114 409.951,373.352 409.951,376.114 L409.951,416.886 C409.951,419.648 407.647,421.886 404.804,421.886 L211.36,421.886 C208.518,421.886 206.214,419.648 206.214,416.886 L206.214,376.114 C206.214,373.352 208.518,371.114 211.36,371.114 z" fill="#FFFFFF"/>
      <path d="M211.36,371.114 L404.804,371.114 C407.647,371.114 409.951,373.352 409.951,376.114 L409.951,416.886 C409.951,419.648 407.647,421.886 404.804,421.886 L211.36,421.886 C208.518,421.886 206.214,419.648 206.214,416.886 L206.214,376.114 C206.214,373.352 208.518,371.114 211.36,371.114 z" fill-opacity="0" stroke="#000000" stroke-width="0.3"/>
    </g>
    <g>
      <path d="M249.324,388.228 L249.324,380.395 L248.06,380.395 Q247.993,380.842 247.78,381.144 Q247.567,381.446 247.259,381.631 Q246.952,381.816 246.566,381.888 Q246.18,381.961 245.766,381.95 L245.766,383.147 L247.735,383.147 L247.735,388.228 z" fill="#0093FF"/>
      <path d="M251.574,383.405 L253.096,383.405 Q253.096,383.092 253.157,382.773 Q253.219,382.454 253.364,382.191 Q253.51,381.928 253.75,381.765 Q253.991,381.603 254.338,381.603 Q254.853,381.603 255.183,381.922 Q255.513,382.241 255.513,382.812 Q255.513,383.17 255.351,383.45 Q255.188,383.729 254.948,383.953 Q254.707,384.177 254.416,384.362 Q254.125,384.546 253.868,384.725 Q253.364,385.072 252.911,385.408 Q252.458,385.744 252.122,386.141 Q251.786,386.538 251.59,387.042 Q251.395,387.546 251.395,388.228 L257.147,388.228 L257.147,386.863 L253.443,386.863 Q253.733,386.46 254.114,386.158 Q254.494,385.856 254.897,385.593 Q255.3,385.33 255.698,385.061 Q256.095,384.793 256.408,384.462 Q256.721,384.132 256.912,383.707 Q257.102,383.282 257.102,382.689 Q257.102,382.118 256.884,381.659 Q256.666,381.2 256.296,380.887 Q255.927,380.574 255.44,380.406 Q254.953,380.238 254.416,380.238 Q253.711,380.238 253.168,380.478 Q252.626,380.719 252.267,381.15 Q251.909,381.581 251.73,382.157 Q251.551,382.733 251.574,383.405 z" fill="#0093FF"/>
      <path d="M259.933,383.562 L259.933,384.681 Q260.224,384.681 260.543,384.697 Q260.862,384.714 261.131,384.821 Q261.399,384.927 261.573,385.162 Q261.746,385.397 261.746,385.845 Q261.746,386.415 261.377,386.745 Q261.008,387.076 260.47,387.076 Q260.124,387.076 259.872,386.952 Q259.62,386.829 259.452,386.622 Q259.284,386.415 259.195,386.13 Q259.105,385.845 259.094,385.531 L257.583,385.531 Q257.572,386.214 257.779,386.74 Q257.986,387.266 258.367,387.629 Q258.747,387.993 259.29,388.183 Q259.833,388.374 260.493,388.374 Q261.064,388.374 261.59,388.206 Q262.116,388.038 262.518,387.713 Q262.921,387.389 263.162,386.908 Q263.403,386.426 263.403,385.811 Q263.403,385.139 263.033,384.658 Q262.664,384.177 262.015,384.032 L262.015,384.009 Q262.563,383.853 262.837,383.416 Q263.112,382.98 263.112,382.409 Q263.112,381.883 262.877,381.48 Q262.642,381.077 262.267,380.797 Q261.892,380.518 261.422,380.378 Q260.952,380.238 260.482,380.238 Q259.877,380.238 259.385,380.434 Q258.893,380.63 258.54,380.988 Q258.188,381.346 257.992,381.844 Q257.796,382.342 257.773,382.946 L259.284,382.946 Q259.273,382.342 259.581,381.944 Q259.889,381.547 260.493,381.547 Q260.929,381.547 261.265,381.816 Q261.601,382.084 261.601,382.588 Q261.601,382.924 261.439,383.125 Q261.276,383.327 261.024,383.433 Q260.773,383.539 260.482,383.562 Q260.191,383.584 259.933,383.562 z" fill="#0093FF"/>
    </g>
    <g>
      <g>
        <path d="M215.613,412.001 C212.524,412.001 210.02,409.497 210.02,406.408 C210.02,403.319 212.524,400.815 215.613,400.815 C218.702,400.815 221.206,403.319 221.206,406.408 C221.206,409.497 218.702,412.001 215.613,412.001 z" fill="#FF0000"/>
        <text fill="#FFFFFF" transform="matrix(1, 0, -0, 1, 215.613, 406.408)">
          <tspan x="-2.502" y="3.411" font-family="HelveticaNeue-Bold" font-size="9">3</tspan>
        </text>
      </g>
      <path d="M221.706,406.908 L239.026,406.908" fill-opacity="0" stroke="#FF0000" stroke-width="0.5"/>
      <g>
        <path d="M239.026,401.315 L299.648,401.315 L299.648,412.501 L239.026,412.501 L239.026,401.315 z" fill-opacity="0" stroke="#FF0000" stroke-width="0.5"/>
        <text fill="#FF0000" transform="matrix(1, 0, -0, 1, 268.837, 406.408)">
          <tspan x="-24.514" y="2.639" font-family="HelveticaNeue-Light" font-size="7">Photo no.: 0123</tspan>
        </text>
      </g>
    </g>
    <text transform="matrix(1, 0, 0, 1, 364.845, 384.306)">
      <tspan x="-43.153" y="3.5" font-family="HelveticaNeue-Medium" font-size="11" fill="#000000">Inspection no.</tspan>
    </text>
    <text transform="matrix(1, 0, 0, 1, 364.845, 406.408)">
      <tspan x="-43.153" y="3.5" font-family="HelveticaNeue-Medium" font-size="11" fill="#000000">Defect Identified</tspan>
    </text>
  </g>
</svg>
