<?xml version="1.0" encoding="UTF-8"?>
<!DOCTYPE svg PUBLIC "-//W3C//DTD SVG 1.1//EN" "http://www.w3.org/Graphics/SVG/1.1/DTD/svg11.dtd">
<svg version="1.1" xmlns="http://www.w3.org/2000/svg" xmlns:xlink="http://www.w3.org/1999/xlink" x="0" y="0" width="32" height="32" viewBox="0, 0, 32, 32">
  <g id="Layer_1">
    <g>
      <path d="M31,16 C31,24.284 24.284,31 16,31 C7.716,31 1,24.284 1,16 C1,7.716 7.716,1 16,1 C24.284,1 31,7.716 31,16 z" fill="#FF0000"/>
      <path d="M31,16 C31,24.284 24.284,31 16,31 C7.716,31 1,24.284 1,16 C1,7.716 7.716,1 16,1 C24.284,1 31,7.716 31,16 z" fill-opacity="0" stroke="#FCA1A1" stroke-width="0.5"/>
    </g>
    <g>
      <path d="M11.597,17.52 Q11.597,18.045 11.482,18.538 Q11.367,19.031 11.121,19.409 Q10.874,19.787 10.505,20.008 Q10.135,20.23 9.609,20.23 Q9.1,20.23 8.722,20.008 Q8.345,19.787 8.098,19.409 Q7.852,19.031 7.737,18.538 Q7.622,18.045 7.622,17.52 Q7.622,16.977 7.737,16.485 Q7.852,15.992 8.098,15.614 Q8.345,15.236 8.722,15.014 Q9.1,14.793 9.609,14.793 Q10.135,14.793 10.505,15.014 Q10.874,15.236 11.121,15.614 Q11.367,15.992 11.482,16.485 Q11.597,16.977 11.597,17.52 z M5.371,10.028 L5.371,21.758 L7.589,21.758 L7.589,20.674 L7.622,20.674 Q8,21.38 8.739,21.676 Q9.478,21.972 10.414,21.972 Q11.055,21.972 11.679,21.709 Q12.304,21.446 12.805,20.904 Q13.306,20.362 13.618,19.516 Q13.93,18.67 13.93,17.503 Q13.93,16.337 13.618,15.491 Q13.306,14.645 12.805,14.103 Q12.304,13.56 11.679,13.298 Q11.055,13.035 10.414,13.035 Q9.626,13.035 8.895,13.339 Q8.164,13.643 7.737,14.3 L7.704,14.3 L7.704,10.028 z" fill="#FFFFFF"/>
      <path d="M17.216,18.945 L14.998,18.945 Q15.031,19.799 15.384,20.366 Q15.737,20.933 16.287,21.278 Q16.838,21.622 17.544,21.77 Q18.251,21.918 18.99,21.918 Q19.713,21.918 20.411,21.779 Q21.109,21.639 21.651,21.294 Q22.193,20.949 22.53,20.382 Q22.867,19.815 22.867,18.978 Q22.867,18.386 22.637,17.984 Q22.407,17.581 22.029,17.31 Q21.651,17.039 21.167,16.875 Q20.682,16.711 20.173,16.596 Q19.68,16.481 19.203,16.382 Q18.727,16.283 18.357,16.16 Q17.988,16.037 17.758,15.84 Q17.528,15.643 17.528,15.331 Q17.528,15.068 17.659,14.912 Q17.791,14.756 17.98,14.673 Q18.169,14.591 18.398,14.567 Q18.628,14.542 18.826,14.542 Q19.45,14.542 19.91,14.78 Q20.37,15.018 20.419,15.692 L22.637,15.692 Q22.571,14.903 22.234,14.386 Q21.898,13.868 21.388,13.556 Q20.879,13.244 20.23,13.113 Q19.581,12.981 18.891,12.981 Q18.201,12.981 17.544,13.105 Q16.887,13.228 16.361,13.532 Q15.836,13.836 15.515,14.361 Q15.195,14.887 15.195,15.708 Q15.195,16.267 15.425,16.653 Q15.655,17.039 16.033,17.294 Q16.411,17.548 16.895,17.704 Q17.38,17.86 17.889,17.975 Q19.138,18.238 19.836,18.501 Q20.534,18.764 20.534,19.29 Q20.534,19.602 20.386,19.807 Q20.238,20.013 20.017,20.136 Q19.795,20.259 19.524,20.316 Q19.253,20.374 19.006,20.374 Q18.661,20.374 18.341,20.292 Q18.021,20.21 17.774,20.037 Q17.528,19.865 17.372,19.594 Q17.216,19.323 17.216,18.945 z" fill="#FFFFFF"/>
      <path d="M26.629,12.004 L26.629,10.082 L24.296,10.082 L24.296,12.004 z M24.296,13.318 L24.296,21.811 L26.629,21.811 L26.629,13.318 z" fill="#FFFFFF"/>
    </g>
  </g>
</svg>
